# xmcd
#
# Track frame offsets: 
#        151
#        17438
#        34671
#        52154
#        69465
#        86904
#        104963
#        125412
#        145325
#        162408
#        179543
#        196380
#
# Disc length: 2837 seconds
#
# Revision: 0
# Processed by: cddbd v1.5.1PL2 Copyright (c) Steve Scherf et al.
# Submitted via: ExactAudioCopy v0.95b4
#
DISCID=b30b130c
DTITLE=แดง  จิตกร  ปราง  ปนิตา - รวมชุดสุดฮิต 2
DYEAR=2003
DGENRE=Country
TTITLE0=มนต์รัก  ตจว.
TTITLE1=สาว ตจว.  รอรัก
TTITLE2=บอกอ้ายได้บ่
TTITLE3=บอกอ้ายบ่ได้
TTITLE4=น้ำตาหน้าด้าน
TTITLE5=น้ำตาหน้าเป็น
TTITLE6=รักสลายข้างไหเหล้า
TTITLE7=รักสลายใจมีกรรม
TTITLE8=ช้ำรักจากร้านลาบ
TTITLE9=คอยพี่ที่ร้านลาบ
TTITLE10=คืนหมาเห่า
TTITLE11=ได้ยินหมาเห่า
EXTD=
EXTT0=
EXTT1=
EXTT2=
EXTT3=
EXTT4=
EXTT5=
EXTT6=
EXTT7=
EXTT8=
EXTT9=
EXTT10=
EXTT11=
PLAYORDER=
